# xmcd
#
# Track frame offsets:
#	182
#	14752
#	26717
#	40530
#	50650
#	67730
#	85155
#	101722
#	115897
#	127037
#	139242
#	157295
#
# Disc length: 2266 seconds
#
# Revision: 0
# Processed by: cddbd v1.4PL0 Copyright (c) Steve Scherf et al.
# Submitted via: audiograbber 1.81.01
#
DISCID=a808d80c
DTITLE=Nicola Di Bari - I Grandi Successi Originali cd2
DYEAR=1900
DGENRE=pop
TTITLE0=Vagabondo
TTITLE1=Se stasera sono qui
TTITLE2=I giorni dell'arcobaleno
TTITLE3=Se potessi amore mio
TTITLE4=Un uomo molte cose non le sà
TTITLE5=Si fa bella l'amore
TTITLE6=Chitarra suona più piano
TTITLE7=Così ti amo (to love somebody)
TTITLE8=Eternamente
TTITLE9=Giramondo
TTITLE10=Sai che bevo sai che fumo
TTITLE11=Ho capito che ti amo
EXTD=
EXTT0=
EXTT1=
EXTT2=
EXTT3=
EXTT4=
EXTT5=
EXTT6=
EXTT7=
EXTT8=
EXTT9=
EXTT10=
EXTT11=
PLAYORDER=
